<?xml version="1.0" encoding="UTF-8"?>
<svg xmlns="http://www.w3.org/2000/svg" viewBox="0 0 304.8 106.94">
  <defs>
    <style>
      .cls-1 {
        stroke-width: .5px;
      }

      .cls-1, .cls-2 {
        fill: none;
        stroke: #1d1d1b;
        stroke-miterlimit: 10;
      }

      .cls-2 {
        stroke-width: .25px;
      }
    </style>
  </defs>
  <g id="Ebene_2">
    <polyline class="cls-1" points="138.58 38.39 138.58 21.46 214.67 .27 282.84 18.39 282.84 34.13"/>
    <polyline class="cls-1" points="275.56 78.65 275.56 48.9 304.54 45.84 304.54 32.56 303.35 32.18 303.35 42.65 273.28 37.58 273.28 25.92 271.61 25.41 271.61 37.31 226.66 30.2"/>
    <polygon class="cls-1" points=".24 76.52 223.86 85.71 223.86 106.65 .24 80.78 .24 76.52"/>
    <line class="cls-1" x1="248.6" y1="99.42" x2="223.86" y2="103.75"/>
    <polyline class="cls-1" points="258.35 81.24 258.59 81.22 304.54 78.44 304.54 89.63 261.49 97.17"/>
    <line class="cls-1" x1="252.66" y1="81.58" x2="256.86" y2="81.33"/>
    <polyline class="cls-1" points="223.86 85.71 248.37 83.58 248.37 81.84 251.55 81.65"/>
    <polyline class="cls-1" points="238.71 87.33 223.86 88.95 .24 77.03"/>
    <polyline class="cls-1" points="275.56 48.9 215.1 43.07 215.1 82.99 20.18 76.29 20.18 65.21 64.8 59.84"/>
    <line class="cls-1" x1="20.2" y1="66.1" x2="2.41" y2="65.63"/>
    <line class="cls-1" x1="214.67" y1=".27" x2="214.67" y2="23.75"/>
    <path class="cls-1" d="M304.54,45.84l-76.26-9.66h0c-2.95-.23-5.91-.23-8.85,0h0S59.95,57.97,59.95,57.97v-8.43l-10.79,2.3v7.66l-46.74,6.13v-3.74l3.15-.04"/>
    <path class="cls-1" d="M226.66,30.2v-14.36l-.4-.08c-1.2-.24-2.44-.24-3.64,0l-.41.08v14.5l-63.31,9.96v-11.18l-1.98.26v11.24l-37.38,5.88v-9.57l-1.21.26v9.51l-23.99,3.76v-7.78l-.84.19v7.74l-18.35,2.85v-7.04l-.57.06v7.08l-13.35,2.1v-7.83l-13.1,2.89v7l-9.03,1.42v-5.1l9.03-.05"/>
    <polyline class="cls-1" points="39.09 59.15 31.27 60.38 31.27 55.72 39.09 55.72"/>
    <line class="cls-1" x1="31.27" y1="60.38" x2="2.41" y2="64.92"/>
    <polyline class="cls-1" points="5.57 64.43 5.57 61.21 9.45 61.21"/>
    <polyline class="cls-1" points="9.45 63.82 9.45 60.38 13.61 60.4"/>
    <polyline class="cls-1" points="13.61 63.16 13.61 59.49 18.61 59.5"/>
    <polyline class="cls-1" points="18.61 62.38 18.61 58.43 24.59 58.43"/>
    <polyline class="cls-1" points="24.59 61.44 24.59 57.2 31.27 57.2"/>
    <polyline class="cls-1" points="222.2 15.84 212.56 26.18 212.56 31.85"/>
    <polyline class="cls-1" points="271.61 25.41 240.2 29.88 240.2 32.34"/>
    <polyline class="cls-1" points="303.35 32.18 274.48 34.92 274.48 37.78"/>
    <polyline class="cls-1" points="158.89 29.12 180.54 31.5 180.54 36.89"/>
    <polyline class="cls-1" points="119.53 36.93 140.88 38.82 140.88 43.13"/>
    <polyline class="cls-1" points="94.33 42.68 113.82 43.67 113.82 47.41"/>
    <line class="cls-1" x1="75.14" y1="46.43" x2="93.49" y2="46.99"/>
    <line class="cls-1" x1="61.21" y1="47.84" x2="74.56" y2="48.1"/>
    <line class="cls-1" x1=".24" y1="76.52" x2="20.18" y2="75.95"/>
    <line class="cls-1" x1="49.16" y1="51.84" x2="59.95" y2="51.84"/>
    <line class="cls-1" x1="49.16" y1="59.5" x2="65.01" y2="59.84"/>
    <polyline class="cls-1" points="59.95 57.97 77.73 58.82 215.1 43.07"/>
    <line class="cls-1" x1="214.67" y1=".97" x2="282.84" y2="18.89"/>
    <line class="cls-1" x1="214.67" y1=".97" x2="138.58" y2="21.97"/>
    <line class="cls-1" x1="138.58" y1="36.52" x2="130.88" y2="37.93"/>
    <line class="cls-1" x1="118.32" y1="40.54" x2="105.53" y2="43.07"/>
    <line class="cls-1" x1="93.49" y1="45.46" x2="87.19" y2="46.71"/>
    <polyline class="cls-1" points="215.1 82.99 248.37 83.58 248.37 86.48 241.51 87.04"/>
    <line class="cls-1" x1="248.37" y1="81.84" x2="247.1" y2="81.84"/>
    <line class="cls-1" x1="246.01" y1="81.84" x2="230.88" y2="81.33"/>
    <line class="cls-1" x1="304.54" y1="78.44" x2="275.56" y2="78.65"/>
    <line class="cls-1" x1="275.56" y1="78.65" x2="256.56" y2="79.42"/>
    <line class="cls-1" x1="254.93" y1="79.35" x2="250.77" y2="79.66"/>
    <line class="cls-1" x1="249.67" y1="79.7" x2="247.1" y2="79.81"/>
    <line class="cls-1" x1="229.86" y1="80.51" x2="216.01" y2="81.07"/>
    <polyline class="cls-1" points="246.01 79.66 231.01 80.46 230.88 80.47"/>
    <line class="cls-1" x1="216.01" y1="81.07" x2="229.86" y2="81.33"/>
  </g>
  <g id="Ebene_4">
    <polygon class="cls-2" points="241.65 14.76 241.65 25.41 243.58 25.77 243.58 15.24 241.65 14.76"/>
    <polygon class="cls-2" points="244.68 15.47 244.68 25.93 246.45 26.23 246.45 15.88 244.68 15.47"/>
    <polygon class="cls-2" points="247.45 16.11 247.45 26.39 249.18 26.67 249.18 16.51 247.45 16.11"/>
    <polygon class="cls-2" points="249.98 16.7 249.98 26.8 251.61 27.06 251.61 17.08 249.98 16.7"/>
    <polygon class="cls-2" points="252.56 17.3 252.56 27.22 254.29 27.49 254.29 17.73 252.56 17.3"/>
    <polyline class="cls-2" points="256.65 27.49 256.65 18.25 255.12 17.89 255.12 27.6"/>
    <polyline class="cls-2" points="257.36 27.44 257.36 18.41 258.82 18.75 258.82 27.23"/>
    <polyline class="cls-2" points="259.43 27.15 259.43 18.89 260.89 19.23 260.89 26.94"/>
    <polyline class="cls-2" points="241.65 45.63 241.65 69.12 273.65 68.69 273.65 48.72"/>
    <polyline class="cls-2" points="178.37 31.26 178.37 14.76 169.72 16.7 169.72 30.31"/>
    <line class="cls-2" x1="169.72" y1="48.28" x2="169.72" y2="81.42"/>
    <line class="cls-2" x1="178.37" y1="47.28" x2="178.37" y2="81.73"/>
    <polygon class="cls-2" points="88.37 82.99 88.37 89.46 91.61 89.88 91.61 83.29 88.37 82.99"/>
    <polygon class="cls-2" points="68.63 81.71 70.67 81.89 70.67 87.62 68.63 87.35 68.63 81.71"/>
    <line class="cls-2" x1="113.22" y1="54.75" x2="113.22" y2="79.49"/>
    <line class="cls-2" x1="94.33" y1="56.92" x2="94.33" y2="78.84"/>
    <polyline class="cls-2" points="109.05 79.34 109.05 56.52 98.16 57.54 98.16 78.97"/>
    <line class="cls-2" x1="74.56" y1="58.67" x2="74.56" y2="78.16"/>
    <polyline class="cls-2" points="65.01 77.82 65.01 59.84 65.01 58.21"/>
    <line class="cls-2" x1="67.27" y1="58.32" x2="67.27" y2="77.82"/>
    <line class="cls-2" x1="53.41" y1="61.21" x2="53.41" y2="77.43"/>
    <line class="cls-2" x1="45.48" y1="62.17" x2="45.48" y2="77.16"/>
    <polyline class="cls-2" points="47.27 77.16 47.27 62.65 52.03 62.1 52.03 77.38"/>
    <line class="cls-2" x1="31.27" y1="76.67" x2="31.27" y2="63.82"/>
    <line class="cls-2" x1="37.2" y1="63.16" x2="37.2" y2="76.87"/>
    <polyline class="cls-2" points="32.54 76.71 32.54 64.43 36.27 64.03 36.27 76.84"/>
    <polyline class="cls-2" points="114.72 47.27 114.72 43.8 118.32 43.41"/>
    <polyline class="cls-2" points="238.71 84.42 238.71 89.09 251.44 102.27 252.78 102.27 252.78 98.69 238.99 84.42"/>
    <polyline class="cls-2" points="248.37 83.58 261.49 97.17 261.49 100.41 259.99 100.41 257.65 97.84"/>
    <line class="cls-2" x1="248.2" y1="87.84" x2="250.56" y2="90.34"/>
    <line class="cls-2" x1="251.49" y1="91.32" x2="253.65" y2="93.61"/>
    <line class="cls-2" x1="254.41" y1="94.4" x2="257" y2="97.15"/>
    <polyline class="cls-2" points="245.07 90.72 252.78 90.18 253.82 91.07 245.99 91.67"/>
    <polyline class="cls-2" points="248.37 94.13 256.29 93.34 257.18 94.13 249.13 94.91"/>
    <polyline class="cls-2" points="251.7 97.58 259.48 96.95 260.29 97.58 252.45 98.35"/>
    <polyline class="cls-2" points="242.73 88.29 250.41 87.66 248.37 86.48"/>
    <polyline class="cls-2" points="215.1 70.48 247.35 70.1 261.49 84.42 261.49 97.17"/>
    <rect class="cls-2" x="230.88" y="71.31" width="15.13" height="4.6"/>
    <rect class="cls-2" x="216.01" y="71.31" width="13.85" height="4.6"/>
    <polyline class="cls-2" points="229.86 83.25 229.86 77.03 216.01 77.03 216.01 83.01"/>
    <polyline class="cls-2" points="230.88 83.27 230.88 77.03 246.01 77.03 246.01 83.54"/>
    <polygon class="cls-2" points="247.1 71.31 260.29 84.84 260.29 89.37 247.1 75.9 247.1 71.31"/>
    <polyline class="cls-2" points="247.1 83.63 247.1 77.03 260.29 90.71 260.29 95.77"/>
  </g>
</svg>